# xmcd
#
# Track frame offsets:
#	150
#	9421
#	20275
#	34408
#	46454
#	56849
#	68821
#	81967
#	93378
#	105073
#	125894
#	137689
#	148861
#	159807
#	168766
#	183187
#	193570
#	209016
#	221199
#	237946
#
# Disc length: 3322
#
# Revision: 2
# Processed by: cddbd v1.5.1PL0 Copyright (c) Steve Scherf et al.
# Submitted via: ExactAudioCopy v0.90b4
# Normalized: r0:DSETVAR1,TDELIM( - ),TSWAP
#
DISCID=190cf814
DTITLE=Various Artist - Best Superstars' Encores
DYEAR=1900
DGENRE=Oldies
TTITLE0=Elvis Presley - Don't Be Cruel
TTITLE1=Elvis Presley - Summer Kisses Winter Tears
TTITLE2=Elvis Presley - Are You Lonesome Tonight
TTITLE3=Paul Anka - Put Your Head On My Sholder
TTITLE4=Paul Anka - Dance On Little Girl
TTITLE5=Paul Anka - Puppy Love
TTITLE6=Andy Williams - Love Is A Many Splendored Thing
TTITLE7=Andy Williams - More
TTITLE8=Frank Sinatra - Strangers In The Night
TTITLE9=Frank Sinatra - My Way
TTITLE10=The Platters - Only You
TTITLE11=The Platters - Summertime
TTITLE12=The Everly Brothers - Cathy's Clown
TTITLE13=The Everly Brothers - Crying In The Rain
TTITLE14=Joan Baez - Donna Donna
TTITLE15=Neil Sedaka - Oh, Carol
TTITLE16=Nat King Cole - Too Young
TTITLE17=The Osmonds - The Twelfth Of Never
TTITLE18=Glen Campbell - Yesterday When I Was Young
TTITLE19=Bobby Vinton - I Love How You Love Me
EXTD=
EXTT0=
EXTT1=
EXTT2=
EXTT3=
EXTT4=
EXTT5=
EXTT6=
EXTT7=
EXTT8=
EXTT9=
EXTT10=
EXTT11=
EXTT12=
EXTT13=
EXTT14=
EXTT15=
EXTT16=
EXTT17=
EXTT18=
EXTT19=
PLAYORDER=
